<?xml version="1.0" encoding="UTF-8"?><svg id="Camada_1" xmlns="http://www.w3.org/2000/svg" viewBox="0 0 40.29 40.29"><defs><style>.cls-1{fill:#fff;}.cls-2{fill:#497972;}</style></defs><circle class="cls-2" cx="20.15" cy="20.15" r="20.15"/><path class="cls-1" d="M31.51,13.48c-1.06-1.97-2.55-3.54-4.49-4.71-1.94-1.17-4.23-1.75-6.87-1.75s-4.84.56-6.79,1.67c-1.96,1.12-3.47,2.67-4.54,4.66-1.07,1.99-1.61,4.29-1.61,6.9s.54,4.94,1.61,6.9c1.07,1.96,2.59,3.47,4.54,4.53,1.95,1.06,4.22,1.6,6.79,1.6,2.82,0,5.25-.56,7.29-1.67,2.04-1.12,3.63-2.69,4.76-4.71,0,0,.69-.78.71-2.63l-5.94-.2c-.67.96-1.49,1.77-2.46,2.42-.97.65-2.28.98-3.94.98-1.97,0-3.51-.52-4.62-1.57-.92-.87-1.43-2.04-1.59-3.48h18.58c.04-.24.07-.57.11-.98.03-.41.05-.84.05-1.29,0-2.47-.53-4.69-1.59-6.67ZM20.2,12.83c2.01,0,3.5.6,4.46,1.8.56.69.93,1.51,1.17,2.42h-11.36c.24-1.03.69-1.91,1.42-2.63,1.07-1.06,2.51-1.6,4.31-1.6Z"/></svg>