<?xml version="1.0" encoding="UTF-8"?><svg id="Camada_1" xmlns="http://www.w3.org/2000/svg" viewBox="0 0 115.86 46.52"><defs><style>.cls-1{fill:#fff;}</style></defs><path class="cls-1" d="M50.76,11.63c1.57,0,2.43.35,2.43,1.42,0,2.22-2.17,1.26-3.79,5.46l-5.51,14.77c-.51,1.37-.86,1.97-3.74,2.63-3.13.76-3.94.2-4.5-1.26l-6.37-16.13c-1.62-4.2-3.84-3.24-3.84-5.46,0-1.16.91-1.42,2.33-1.42h8.7c1.57,0,2.48.35,2.48,1.42,0,2.22-2.83,1.26-1.21,5.46l4.15,10.62,3.89-10.57c1.52-4.25-1.21-3.29-1.21-5.51,0-1.16.86-1.42,2.33-1.42h3.89Z"/><path class="cls-1" d="M75.59,15.93c0,2.33-1.16,3.74-2.68,3.74-2.68,0-2.53-2.83-5.06-2.83-1.62,0-3.03,1.62-3.03,4.9v6.98c0,4.6,2.48,3.34,2.48,5.76,0,1.16-.86,1.42-2.33,1.42h-8.19c-1.52,0-2.43-.35-2.43-1.47,0-2.38,2.53-1.11,2.53-5.71v-9.35c0-1.26-.76-2.02-1.57-2.73-.46-.35-.96-.76-.96-1.57,0-.91.46-1.31,1.67-1.87,1.97-.91,5.81-2.02,6.67-2.07.91,0,1.26.61,1.26,1.72v2.48c2.02-3.03,4.65-4.2,6.88-4.2,2.98,0,4.75,1.97,4.75,4.8Z"/><path class="cls-1" d="M113.38,11.63c1.57,0,2.48.35,2.48,1.42,0,2.22-2.22,1.26-3.84,5.46l-6.27,16.18c-2.88,7.38-5.36,11.83-11.98,11.83-3.14,0-6.68-1.67-6.68-5.21,0-1.97,1.26-3.94,3.59-3.94,3.39,0,2.83,5.31,5.76,5.31,1.52,0,2.73-1.72,2.73-3.99,0-.96-.25-1.97-.66-3.08l-6.83-17.09c-1.62-4.2-3.84-3.24-3.84-5.46,0-1.16.91-1.42,2.33-1.42h8.7c1.57,0,2.48.35,2.48,1.42,0,2.22-2.83,1.26-1.21,5.46l4.2,10.77,4-10.77c1.62-4.2-1.16-3.24-1.16-5.46,0-1.16.91-1.42,2.33-1.42h3.89Z"/><path class="cls-1" d="M24.3,17.48c-1.06-1.97-2.55-3.54-4.49-4.71-1.94-1.17-4.23-1.75-6.87-1.75s-4.84.56-6.79,1.67c-1.96,1.12-3.47,2.67-4.54,4.66-1.07,1.99-1.61,4.29-1.61,6.9s.54,4.94,1.61,6.9c1.07,1.96,2.59,3.47,4.54,4.53,1.95,1.06,4.22,1.6,6.79,1.6,2.82,0,5.25-.56,7.29-1.67,2.04-1.12,3.63-2.69,4.76-4.71,0,0,.69-.78.71-2.63l-5.94-.2c-.67.96-1.49,1.77-2.46,2.42-.97.65-2.28.98-3.94.98-1.97,0-3.51-.52-4.62-1.57-.92-.87-1.43-2.04-1.59-3.48h18.58c.04-.24.07-.57.11-.98.03-.41.05-.84.05-1.29,0-2.47-.53-4.69-1.59-6.67ZM13,16.84c2.01,0,3.5.6,4.46,1.8.56.69.93,1.51,1.17,2.42H7.27c.24-1.03.69-1.91,1.42-2.63,1.07-1.06,2.51-1.6,4.31-1.6Z"/><path class="cls-1" d="M86.25,28.72V8.65l.05-6.93c0-1.11-.35-1.72-1.32-1.72-.81,0-5.41,1.52-7.43,2.48-1.21.56-1.67.96-1.67,1.72,0,1.52,2.38,1.42,2.38,4.45l.05,20.08s0,.06,0,.09c.31,2.72,1.04,7.09,4.6,7.09h3.5c1.47,0,2.33-.25,2.33-1.42,0-2.43-2.48-1.16-2.48-5.76Z"/></svg>